<svg width="82" height="67" viewBox="0 0 82 67" fill="none" xmlns="http://www.w3.org/2000/svg">
<path d="M46.0521 66.9999C60.4208 65.9879 81.0751 63.6887 81.0864 35.4852V0H49.0233V37.9665H59.6698C60.3442 48.1043 52.015 50.722 42.9574 52.7314L46.0521 66.9999ZM3.09506 66.9999C17.4638 65.9879 38.118 63.6887 38.1293 35.4852V0H6.06607V37.9665H16.7126C17.3871 48.1043 9.05775 50.722 0.000137329 52.7314L3.09506 66.9999Z" fill="white"/>
<path d="M0.594238 53.1092C4.94543 52.1296 9.18527 50.9637 12.2915 48.8075C13.9128 47.682 15.2371 46.2796 16.1089 44.4862C16.9807 42.6927 17.3848 40.539 17.2114 37.9335L17.1802 37.4667H6.56592V0.49987H37.6294V35.4852C37.6237 49.4413 32.525 56.8897 25.7368 61.0116C19.0295 65.0842 10.5994 65.9592 3.4917 66.4696L0.594238 53.1092ZM43.5513 53.1092C47.9025 52.1295 52.1423 50.9637 55.2485 48.8075C56.8698 47.682 58.1941 46.2796 59.0659 44.4862C59.9378 42.6926 60.3418 40.5391 60.1685 37.9335L60.1372 37.4667H49.5229V0.49987H80.5864V35.4852L80.5708 36.7743C80.2602 49.9035 75.27 57.0185 68.6938 61.0116C61.9865 65.0842 53.5564 65.9592 46.4487 66.4696L43.5513 53.1092Z" stroke="black" stroke-opacity="0.2"/>
</svg>
