<svg width="82" height="67" viewBox="0 0 82 67" fill="none" xmlns="http://www.w3.org/2000/svg">
<path d="M46.052 67C60.4207 65.9881 81.0749 63.6889 81.0862 35.4853V0.0001297H49.0231V37.9667H59.6696C60.344 48.1044 52.0148 50.7222 42.9572 52.7316L46.052 67ZM3.09488 67C17.4636 65.9881 38.1178 63.6888 38.1291 35.4853V0.0001297H6.06589V37.9667H16.7124C17.3869 48.1044 9.05756 50.7222 -4.57764e-05 52.7316L3.09488 67Z" fill="white"/>
<path d="M0.594055 53.1094C4.94524 52.1297 9.18508 50.9638 12.2913 48.8076C13.9126 47.6821 15.2369 46.2797 16.1087 44.4863C16.9805 42.6928 17.3846 40.5392 17.2112 37.9336L17.18 37.4668H6.56573V0.5H37.6292V35.4854C37.6236 49.4414 32.5248 56.8898 25.7366 61.0117C19.0294 65.0844 10.5992 65.9594 3.49152 66.4697L0.594055 53.1094ZM43.5511 53.1094C47.9023 52.1297 52.1421 50.9638 55.2484 48.8076C56.8696 47.6821 58.1939 46.2798 59.0657 44.4863C59.9376 42.6928 60.3416 40.5392 60.1683 37.9336L60.137 37.4668H49.5228V0.5H80.5862V35.4854L80.5706 36.7744C80.2601 49.9036 75.2698 57.0186 68.6937 61.0117C61.9864 65.0844 53.5562 65.9594 46.4485 66.4697L43.5511 53.1094Z" stroke="black" stroke-opacity="0.2"/>
</svg>
