<svg width="40" height="40" viewBox="0 0 40 40" fill="none" xmlns="http://www.w3.org/2000/svg">
<path d="M36.0216 19.9859H35.979L32.606 12.4182C32.2908 11.7125 31.7774 11.1131 31.1278 10.6922C30.4782 10.2714 29.7202 10.0472 28.9455 10.0469H11.055C10.2804 10.0473 9.52244 10.2715 8.87288 10.6923C8.22333 11.1131 7.70996 11.7126 7.39485 12.4182L4.02152 19.9859H3.97888C3.27094 19.9867 2.59222 20.2675 2.09162 20.7667C1.59103 21.2658 1.30945 21.9426 1.30865 22.6485V31.9673C1.30945 32.6732 1.59103 33.35 2.09162 33.8492C2.59222 34.3483 3.27094 34.6291 3.97888 34.6299V38.0035C3.9795 38.5329 4.19069 39.0404 4.56613 39.4148C4.94157 39.7892 5.4506 39.9997 5.98155 40.0004H10.6544C11.1854 39.9997 11.6944 39.7892 12.0699 39.4148C12.4453 39.0404 12.6565 38.5329 12.6571 38.0035V34.6299H27.3434V38.0035C27.344 38.5329 27.5552 39.0404 27.9306 39.4148C28.3061 39.7892 28.8151 39.9997 29.346 40.0004H34.0189C34.5499 39.9997 35.0589 39.7892 35.4344 39.4148C35.8098 39.0404 36.021 38.5329 36.0216 38.0035V34.6299C36.7295 34.6291 37.4083 34.3483 37.9089 33.8492C38.4095 33.35 38.691 32.6732 38.6918 31.9673V22.6485C38.691 21.9426 38.4095 21.2658 37.9089 20.7667C37.4083 20.2675 36.7295 19.9867 36.0216 19.9859ZM9.83461 13.4998C9.93965 13.2646 10.1108 13.0647 10.3274 12.9244C10.544 12.7842 10.7967 12.7095 11.055 12.7094H28.9455C29.2037 12.7095 29.4564 12.7843 29.6729 12.9245C29.8894 13.0648 30.0605 13.2646 30.1656 13.4998L33.0566 19.9859H6.94358L9.83461 13.4998ZM9.98689 37.3378H6.64911V34.6299H9.98689V37.3378ZM33.3514 37.3378H30.0136V34.6299H33.3514V37.3378ZM36.0216 31.9673H3.97888V22.6485H36.0216V31.9673Z" fill="#2F538F"/>
<path d="M13.2706 26.0459H6.72858V28.6505H13.2706V26.0459Z" fill="#2F538F"/>
<path d="M33.2706 26.0459H26.7286V28.6505H33.2706V26.0459Z" fill="#2F538F"/>
<path d="M20 0L0 7.94693V10.7907L20 2.84385L40 10.7907V7.94693L20 0Z" fill="#2F538F"/>
</svg>
