<svg width="20" height="20" viewBox="0 0 20 20" fill="none" xmlns="http://www.w3.org/2000/svg">
<path d="M10 18.5714C11.1256 18.5714 12.2402 18.3497 13.2801 17.919C14.3201 17.4882 15.265 16.8568 16.0609 16.0609C16.8568 15.265 17.4882 14.3201 17.919 13.2801C18.3497 12.2402 18.5714 11.1256 18.5714 10C18.5714 8.87438 18.3497 7.75979 17.919 6.71986C17.4882 5.67992 16.8568 4.73502 16.0609 3.93908C15.265 3.14315 14.3201 2.51179 13.2801 2.08103C12.2402 1.65028 11.1256 1.42857 10 1.42857C7.72672 1.42857 5.54654 2.33163 3.93908 3.93908C2.33163 5.54654 1.42857 7.72672 1.42857 10C1.42857 12.2733 2.33163 14.4535 3.93908 16.0609C5.54654 17.6684 7.72672 18.5714 10 18.5714ZM10 20C7.34784 20 4.8043 18.9464 2.92893 17.0711C1.05357 15.1957 0 12.6522 0 10C0 7.34784 1.05357 4.8043 2.92893 2.92893C4.8043 1.05357 7.34784 0 10 0C12.6522 0 15.1957 1.05357 17.0711 2.92893C18.9464 4.8043 20 7.34784 20 10C20 12.6522 18.9464 15.1957 17.0711 17.0711C15.1957 18.9464 12.6522 20 10 20Z" fill="#2F538F"/>
<path d="M2.76733 9.98234C2.76733 8.10202 3.52272 6.29871 4.86732 4.96912C6.21192 3.63953 8.03559 2.89258 9.93715 2.89258C11.8387 2.89258 13.6624 3.63953 15.007 4.96912C16.3516 6.29871 17.107 8.10202 17.107 9.98234C17.107 10.1704 17.0314 10.3507 16.897 10.4837C16.7625 10.6166 16.5801 10.6913 16.39 10.6913C16.1998 10.6913 16.0175 10.6166 15.883 10.4837C15.7485 10.3507 15.673 10.1704 15.673 9.98234C15.673 8.47809 15.0687 7.03544 13.993 5.97177C12.9173 4.9081 11.4584 4.31053 9.93715 4.31053C8.4159 4.31053 6.95697 4.9081 5.88129 5.97177C4.80561 7.03544 4.2013 8.47809 4.2013 9.98234C4.2013 10.1704 4.12576 10.3507 3.9913 10.4837C3.85684 10.6166 3.67447 10.6913 3.48432 10.6913C3.29416 10.6913 3.11179 10.6166 2.97733 10.4837C2.84287 10.3507 2.76733 10.1704 2.76733 9.98234Z" fill="#2F538F"/>
<path d="M11.1993 12.6024C11.5946 12.913 11.8698 13.3566 11.9763 13.8548C12.0828 14.3529 12.0138 14.8736 11.7813 15.3247C11.5489 15.7758 11.1681 16.1283 10.7062 16.32C10.2443 16.5116 9.73099 16.5301 9.25706 16.372C8.78314 16.214 8.37909 15.8897 8.11631 15.4563C7.85354 15.023 7.74896 14.5086 7.82105 14.004C7.89315 13.4995 8.13729 13.0372 8.51031 12.699C8.88333 12.3607 9.36123 12.1683 9.85954 12.1556L11.2021 7.92724C11.2299 7.83631 11.2751 7.75191 11.335 7.67896C11.3949 7.606 11.4684 7.54592 11.5511 7.5022C11.6339 7.45848 11.7243 7.43199 11.8172 7.42425C11.91 7.41652 12.0034 7.4277 12.092 7.45714C12.1806 7.48659 12.2626 7.53372 12.3332 7.5958C12.4039 7.65788 12.4618 7.73368 12.5037 7.81881C12.5455 7.90395 12.5704 7.99673 12.577 8.09178C12.5835 8.18683 12.5716 8.28227 12.5418 8.37256L11.1993 12.601V12.6024ZM9.69472 15.0034C9.78278 15.0327 9.87562 15.044 9.96796 15.0367C10.0603 15.0293 10.1503 15.0034 10.2328 14.9604C10.3154 14.9175 10.3888 14.8583 10.449 14.7863C10.5092 14.7143 10.555 14.6309 10.5836 14.5408C10.6123 14.4507 10.6234 14.3557 10.6162 14.2612C10.609 14.1668 10.5836 14.0747 10.5416 13.9903C10.4997 13.9058 10.4418 13.8307 10.3714 13.7691C10.301 13.7075 10.2195 13.6607 10.1314 13.6314C9.95359 13.5721 9.76002 13.5876 9.59331 13.6744C9.42661 13.7611 9.30042 13.9121 9.24251 14.094C9.18459 14.2759 9.1997 14.474 9.28451 14.6445C9.36932 14.815 9.51687 14.9441 9.69472 15.0034Z" fill="#2F538F"/>
</svg>
