<svg width="21" height="21" viewBox="0 0 21 21" fill="none" xmlns="http://www.w3.org/2000/svg">
<path d="M18.8905 10.0193V7.62902C18.8905 7.48447 18.8334 7.34585 18.7317 7.24364C18.63 7.14143 18.4921 7.084 18.3483 7.08398H2.69043" stroke="#2F538F" stroke-linecap="round" stroke-linejoin="round"/>
<path d="M4.39434 5.17578H1.71865C1.55864 5.17575 1.40018 5.2074 1.25234 5.26893C1.10449 5.33045 0.97015 5.42065 0.856986 5.53436C0.743823 5.64807 0.654052 5.78307 0.5928 5.93165C0.531548 6.08023 0.500014 6.23949 0.5 6.40032V19.4515C0.5 19.7296 0.609913 19.9963 0.80556 20.1929C1.00121 20.3896 1.26656 20.5001 1.54325 20.5001H17.8472C18.1239 20.5001 18.3893 20.3896 18.5849 20.1929C18.7806 19.9963 18.8905 19.7296 18.8905 19.4515V17.0393" stroke="#2F538F" stroke-linecap="round" stroke-linejoin="round"/>
<path d="M20.5001 19.1746V6.68663C20.5001 6.286 20.3418 5.90175 20.06 5.61841C19.7782 5.33507 19.396 5.17585 18.9974 5.17578H18.1055" stroke="#2F538F" stroke-linecap="round" stroke-linejoin="round"/>
<path d="M16.7226 15.6194C16.1735 15.6166 15.6478 15.3954 15.2605 15.0041C14.8732 14.6128 14.6558 14.0833 14.6558 13.5314C14.6558 12.9794 14.8732 12.45 15.2605 12.0587C15.6478 11.6674 16.1735 11.4462 16.7226 11.4434" stroke="#2F538F" stroke-linecap="round" stroke-linejoin="round"/>
<path d="M16.7227 15.6198H18.8848L20.4822 14.6328" stroke="#2F538F" stroke-linecap="round" stroke-linejoin="round"/>
<path d="M16.7227 11.4439H18.8848L20.482 10.457" stroke="#2F538F" stroke-linecap="round" stroke-linejoin="round"/>
<path d="M17.6255 6.98427L16.3407 3.65234L8.00342 7.03474" stroke="#2F538F" stroke-linecap="round" stroke-linejoin="round"/>
<path d="M14.9663 4.06843L12.2723 0.5L3.58264 6.96615" stroke="#2F538F" stroke-linecap="round" stroke-linejoin="round"/>
<path d="M16.5331 13.8764C16.7224 13.8764 16.8758 13.7222 16.8758 13.532C16.8758 13.3417 16.7224 13.1875 16.5331 13.1875C16.3439 13.1875 16.1904 13.3417 16.1904 13.532C16.1904 13.7222 16.3439 13.8764 16.5331 13.8764Z" fill="white" stroke="#2F538F" stroke-linecap="round" stroke-linejoin="round"/>
</svg>
