<svg width="55" height="40" viewBox="0 0 55 40" fill="none" xmlns="http://www.w3.org/2000/svg">
<path d="M35.2 0C33.9976 0 33 1.00771 33 2.22222V28.8889H29.7V3.33333C29.7 3.03866 29.5841 2.75606 29.3778 2.54769C29.1715 2.33933 28.8917 2.22225 28.6 2.22222H13.2C12.9083 2.22225 12.6285 2.33933 12.4222 2.54769C12.2159 2.75606 12.1 3.03866 12.1 3.33333V28.8889H8.8V3.33333C8.79997 3.03866 8.68407 2.75606 8.47779 2.54769C8.2715 2.33933 7.99173 2.22225 7.7 2.22222H0V4.44444H6.6V33.3333H5.38828C4.8747 30.806 2.64787 28.8889 0 28.8889V31.1111C1.83533 31.1111 3.3 32.5906 3.3 34.4444C3.3 36.2983 1.83533 37.7778 0 37.7778V40C2.64787 40 4.8747 38.0829 5.38828 35.5556H7.7C7.99173 35.5555 8.2715 35.4385 8.47779 35.2301C8.68407 35.0217 8.79997 34.7391 8.8 34.4444V31.1111H12.1V34.4444C12.1 34.7391 12.2159 35.0217 12.4222 35.2301C12.6285 35.4385 12.9083 35.5555 13.2 35.5556H15.5074C15.6861 36.5297 16.0984 37.4666 16.7771 38.2379C17.7121 39.3003 19.1583 40 20.9 40C22.6417 40 24.0879 39.3003 25.0229 38.2379C25.7016 37.4666 26.1139 36.5297 26.2926 35.5556H28.6C28.8917 35.5555 29.1715 35.4385 29.3778 35.2301C29.5841 35.0217 29.7 34.7391 29.7 34.4444V31.1111H33V33.3333C33 34.5479 33.9976 35.5556 35.2 35.5556H38.6074C38.7861 36.5297 39.1984 37.4666 39.8771 38.2379C40.8121 39.3003 42.2583 40 44 40C45.7417 40 47.1879 39.3003 48.1229 38.2379C48.8016 37.4666 49.2139 36.5297 49.3926 35.5556H52.8C54.0024 35.5556 55 34.5479 55 33.3333V16.25C55 15.5721 54.7948 14.9087 54.4113 14.3511L45.5598 1.43663C44.9443 0.536662 43.9278 0 42.8463 0H39.6H35.2ZM35.2 2.22222H38.5V16.6667C38.5 16.9613 38.6159 17.2439 38.8222 17.4523C39.0285 17.6607 39.3083 17.7778 39.6 17.7778H52.8V33.3333H49.3926C49.2139 32.3592 48.8016 31.4223 48.1229 30.651C47.1879 29.5886 45.7417 28.8889 44 28.8889C42.2583 28.8889 40.8121 29.5886 39.8771 30.651C39.1984 31.4223 38.7861 32.3592 38.6074 33.3333H35.2V2.22222ZM40.7 2.22222H42.8463C43.2079 2.22222 43.5456 2.39962 43.7508 2.69965V2.70182L52.5615 15.5556H40.7V2.22222ZM14.3 4.44444H27.5V33.3333H26.2926C26.1139 32.3592 25.7016 31.4223 25.0229 30.651C24.0879 29.5886 22.6417 28.8889 20.9 28.8889C19.1583 28.8889 17.7121 29.5886 16.7771 30.651C16.0984 31.4223 15.6861 32.3592 15.5074 33.3333H14.3V4.44444ZM20.9 31.1111C22.0917 31.1111 22.8454 31.5225 23.3771 32.1267C23.9089 32.731 24.2 33.5802 24.2 34.4444C24.2 35.3086 23.9089 36.1579 23.3771 36.7622C22.8454 37.3664 22.0917 37.7778 20.9 37.7778C19.7083 37.7778 18.9546 37.3664 18.4228 36.7622C17.8911 36.1579 17.6 35.3086 17.6 34.4444C17.6 33.5802 17.8911 32.731 18.4228 32.1267C18.9546 31.5225 19.7083 31.1111 20.9 31.1111ZM44 31.1111C45.1917 31.1111 45.9454 31.5225 46.4771 32.1267C47.0089 32.731 47.3 33.5802 47.3 34.4444C47.3 35.3086 47.0089 36.1579 46.4771 36.7622C45.9454 37.3664 45.1917 37.7778 44 37.7778C42.8083 37.7778 42.0546 37.3664 41.5229 36.7622C40.9911 36.1579 40.7 35.3086 40.7 34.4444C40.7 33.5802 40.9911 32.731 41.5229 32.1267C42.0546 31.5225 42.8083 31.1111 44 31.1111Z" fill="white"/>
</svg>
