<svg width="33" height="41" viewBox="0 0 33 41" fill="none" xmlns="http://www.w3.org/2000/svg">
<path d="M32.8906 9.28394V35.8753C32.8906 38.7056 30.5897 41 27.7514 41H5.13915C2.30088 41 0 38.7056 0 35.8753V5.1268C0 2.29648 2.30088 0.00205477 5.13915 0.00205477H23.5826C23.8555 -0.0152043 24.1395 0.0755222 24.3669 0.302255L32.5895 8.50184C32.8169 8.72858 32.9079 9.01183 32.8906 9.28394ZM22.6123 2.05195H5.13915C3.43619 2.05195 2.05566 3.42861 2.05566 5.1268V35.8753C2.05566 37.5734 3.43619 38.9501 5.13915 38.9501H27.7514C29.4544 38.9501 30.8349 37.5734 30.8349 35.8753V10.2515H23.6401C23.0725 10.2515 22.6123 9.79265 22.6123 9.22659V2.05195ZM24.6679 3.50145V8.20164H29.3814L24.6679 3.50145ZM9.25048 16.3992C8.68282 16.3992 8.22265 15.9403 8.22265 15.3742C8.22265 14.8082 8.68282 14.3493 9.25048 14.3493H23.6401C24.2078 14.3493 24.6679 14.8082 24.6679 15.3742C24.6679 15.9403 24.2078 16.3992 23.6401 16.3992H9.25048ZM9.25048 22.5489C8.68282 22.5489 8.22265 22.09 8.22265 21.5239C8.22265 20.9579 8.68282 20.499 9.25048 20.499H23.6401C24.2078 20.499 24.6679 20.9579 24.6679 21.5239C24.6679 22.09 24.2078 22.5489 23.6401 22.5489H9.25048ZM9.25048 28.6986C8.68282 28.6986 8.22265 28.2397 8.22265 27.6736C8.22265 27.1075 8.68282 26.6487 9.25048 26.6487H19.5288C20.0964 26.6487 20.5566 27.1075 20.5566 27.6736C20.5566 28.2397 20.0964 28.6986 19.5288 28.6986H9.25048Z" fill="#2F538F"/>
</svg>
