<svg width="20" height="16" viewBox="0 0 20 16" fill="none" xmlns="http://www.w3.org/2000/svg">
<path d="M18.5423 5.30907H18.5195L16.7178 1.26667C16.5495 0.889737 16.2752 0.56951 15.9282 0.344716C15.5812 0.119922 15.1763 0.000190299 14.7625 0H5.20611C4.79234 0.00021907 4.38749 0.119965 4.04052 0.344758C3.69355 0.56955 3.41933 0.889761 3.25101 1.26667L1.44911 5.30907H1.42633C1.04818 5.30949 0.685629 5.45947 0.418232 5.72609C0.150835 5.99272 0.00042471 6.35422 0 6.73129V11.7091C0.00042471 12.0861 0.150835 12.4476 0.418232 12.7143C0.685629 12.9809 1.04818 13.1309 1.42633 13.1313V14.9333C1.42666 15.2161 1.53947 15.4872 1.74002 15.6872C1.94056 15.8872 2.21247 15.9997 2.49608 16H4.99216C5.27578 15.9997 5.54768 15.8872 5.74823 15.6872C5.94877 15.4872 6.06158 15.2161 6.06191 14.9333V13.1313H13.9067V14.9333C13.9071 15.2161 14.0199 15.4872 14.2204 15.6872C14.421 15.8872 14.6929 15.9997 14.9765 16H17.4726C17.7562 15.9997 18.0281 15.8872 18.2286 15.6872C18.4292 15.4872 18.542 15.2161 18.5423 14.9333V13.1313C18.9205 13.1309 19.283 12.9809 19.5504 12.7143C19.8178 12.4476 19.9682 12.0861 19.9687 11.7091V6.73129C19.9682 6.35422 19.8178 5.99272 19.5504 5.72609C19.283 5.45947 18.9205 5.30949 18.5423 5.30907ZM4.55423 1.84444C4.61035 1.71878 4.70178 1.61202 4.81747 1.53708C4.93316 1.46215 5.06816 1.42225 5.20611 1.42222H14.7625C14.9005 1.42229 15.0354 1.46221 15.1511 1.53714C15.2667 1.61207 15.3581 1.71881 15.4142 1.84444L16.9585 5.30902H3.00996L4.55423 1.84444ZM4.63558 14.5778H2.85266V13.1313H4.63558V14.5778ZM17.116 14.5778H15.3331V13.1313H17.116V14.5778ZM18.5423 11.7091H1.42633V6.73129H18.5423V11.7091Z" fill="#2F538F"/>
<path d="M6.38905 8.54688H2.89453V9.93818H6.38905V8.54688Z" fill="#2F538F"/>
<path d="M17.0726 8.54688H13.5781V9.93818H17.0726V8.54688Z" fill="#2F538F"/>
</svg>
