<svg width="23" height="23" viewBox="0 0 23 23" fill="none" xmlns="http://www.w3.org/2000/svg">
<path fill-rule="evenodd" clip-rule="evenodd" d="M8.05031 6.24319C9.04839 6.24319 9.85745 5.43411 9.85745 4.43605C9.85745 3.43799 9.04839 2.62891 8.05031 2.62891C7.05225 2.62891 6.24316 3.43799 6.24316 4.43605C6.24316 5.43411 7.05225 6.24319 8.05031 6.24319ZM8.05031 5.06855C8.39963 5.06855 8.68281 4.78537 8.68281 4.43605C8.68281 4.08673 8.39963 3.80355 8.05031 3.80355C7.70099 3.80355 7.41781 4.08673 7.41781 4.43605C7.41781 4.78537 7.70099 5.06855 8.05031 5.06855Z" fill="#2F538F"/>
<path fill-rule="evenodd" clip-rule="evenodd" d="M3.67115 4.09284C3.67115 1.78719 5.63848 0 7.96154 0C10.2846 0 12.2519 1.78719 12.2519 4.09284C12.2519 4.47625 12.2178 4.89659 12.143 5.33934L15.0385 6.06739L21.9009 4.34185C22.1651 4.27539 22.4451 4.33511 22.6598 4.50372C22.8745 4.67234 23 4.93104 23 5.20503V20.3307C23 20.739 22.7237 21.0949 22.3299 21.1939L15.253 22.9734C15.1122 23.0088 14.9648 23.0088 14.8239 22.9734L7.96154 21.2478L1.09917 22.9734C0.834891 23.0399 0.554919 22.9802 0.340214 22.8116C0.1255 22.6429 0 22.3842 0 22.1102V6.98452C0 6.57624 0.276265 6.22036 0.670061 6.12134L3.78005 5.33934C3.70533 4.89659 3.67115 4.47625 3.67115 4.09284ZM7.96154 1.51257C6.37612 1.51257 5.175 2.71303 5.175 4.09284C5.175 5.49952 5.76106 7.58368 7.43943 9.16593C7.73367 9.44335 8.18942 9.44335 8.48364 9.16593C10.162 7.58368 10.7481 5.49952 10.7481 4.09284C10.7481 2.71303 9.54695 1.51257 7.96154 1.51257ZM4.25415 7.05438L1.9699 7.62876C1.85193 7.65842 1.76923 7.76449 1.76923 7.88612V20.6303C1.76923 20.803 1.93174 20.9298 2.09933 20.8876L6.87626 19.6865C6.99422 19.6568 7.07692 19.5508 7.07692 19.4291V10.8371C5.66466 9.75199 4.77016 8.38544 4.25415 7.05438ZM8.84615 10.8371V19.4291C8.84615 19.5508 8.92887 19.6568 9.04678 19.6865L13.8237 20.8876C13.9913 20.9298 14.1538 20.803 14.1538 20.6303V7.88613C14.1538 7.76449 14.0711 7.65842 13.9532 7.62876L11.669 7.05438C11.1529 8.38544 10.2584 9.75199 8.84615 10.8371ZM21.2308 19.4291C21.2308 19.5508 21.1481 19.6568 21.0301 19.6865L16.2532 20.8876C16.0856 20.9298 15.9231 20.803 15.9231 20.6303V7.88613C15.9231 7.76449 16.0058 7.65843 16.1237 7.62876L20.9006 6.4276C21.0683 6.38546 21.2308 6.51217 21.2308 6.68497V19.4291Z" fill="#2F538F"/>
</svg>
