<svg width="22" height="22" viewBox="0 0 22 22" fill="none" xmlns="http://www.w3.org/2000/svg">
<path d="M5.13672 11.9025V11.8281" stroke="#2F538F" stroke-width="1.5" stroke-linecap="round" stroke-linejoin="round"/>
<path d="M9.59766 11.9025V11.8281" stroke="#2F538F" stroke-width="1.5" stroke-linecap="round" stroke-linejoin="round"/>
<path d="M14.0833 20.75H1.41667C1.04848 20.75 0.75 20.4516 0.75 20.0833V3.63889C0.75 3.2707 1.04848 2.97222 1.41667 2.97222H7.41667V1.41667C7.41667 1.04848 7.71515 0.75 8.08333 0.75H13.4167C13.7849 0.75 14.0833 1.04848 14.0833 1.41667V7.41667M14.0833 20.75H20.0833C20.4516 20.75 20.75 20.4516 20.75 20.0833V8.08333C20.75 7.71515 20.4516 7.41667 20.0833 7.41667H14.0833M14.0833 20.75V16.3056M14.0833 7.41667V11.8611M14.0833 16.3056V11.8611M14.0833 16.3056H16.3056M14.0833 11.8611H16.3056" stroke="#2F538F" stroke-width="1.5" stroke-linecap="round" stroke-linejoin="round"/>
</svg>
