<svg width="20" height="20" viewBox="0 0 20 20" fill="none" xmlns="http://www.w3.org/2000/svg">
<path d="M7.52319 8.40957C7.37624 8.60987 7.3979 8.87633 7.5723 9.00412L9.67358 10.6252L9.70285 10.642L9.71596 10.6493C9.89766 10.7505 10.1383 10.6969 10.2986 10.5203L10.3126 10.5069L12.888 7.45984C13.0347 7.29549 13.0371 7.0589 12.8945 6.93206C12.7515 6.80492 12.517 6.83543 12.371 6.99973L9.96352 9.57148L8.10492 8.27717C7.93112 8.1492 7.67045 8.20863 7.52319 8.40957Z" fill="#2F538F"/>
<path d="M2.59586 9.61133C2.58644 9.73877 2.58398 9.86864 2.58398 9.99824C2.58398 10.1306 2.5864 10.258 2.59586 10.3855H4.13435C4.12059 10.258 4.11787 10.1284 4.11787 9.99824C4.11787 9.86868 4.12059 9.73881 4.13435 9.61133H2.59586Z" fill="#2F538F"/>
<path d="M6.57569 3.42188C6.38394 3.51885 6.19702 3.62618 6.01562 3.74387L6.78272 5.07594L6.83912 5.03783C6.98453 4.94574 7.13303 4.85886 7.28365 4.78204L7.34252 4.75368L6.57569 3.42188Z" fill="#2F538F"/>
<path d="M3.74481 6.01562C3.62716 6.19706 3.51979 6.38363 3.42285 6.57542L4.75492 7.34221L5.07718 6.78275L3.74481 6.01562Z" fill="#2F538F"/>
<path d="M5.07715 13.2121L5.03843 13.1557C4.94664 13.0124 4.85976 12.8642 4.78294 12.7109L4.75216 12.6523L3.42285 13.4191C3.51737 13.6109 3.62712 13.7975 3.74481 13.9789L5.07715 13.2121Z" fill="#2F538F"/>
<path d="M6.83912 14.9564L6.78272 14.918L6.01562 16.2503C6.19702 16.368 6.38394 16.4777 6.57569 16.575L7.34252 15.243L7.28365 15.2146C7.13303 15.1381 6.98457 15.0512 6.83912 14.9564Z" fill="#2F538F"/>
<path d="M13.9802 3.74387C13.7988 3.62618 13.6143 3.51885 13.4232 3.42188L12.6533 4.75122L13.2131 5.07591L13.9802 3.74387Z" fill="#2F538F"/>
<path d="M10.3864 4.13435V2.59801C10.259 2.58644 10.1294 2.58398 9.99922 2.58398C9.86961 2.58398 9.74005 2.5864 9.6123 2.59801V4.13435V4.15053H10.3864V4.13435Z" fill="#2F538F"/>
<path d="M17.5096 10.1816C17.5189 10.0542 17.5213 9.92433 17.5212 9.79473C17.5211 9.66241 17.5186 9.53496 17.509 9.40753L15.9705 9.40871C15.9844 9.53614 15.9872 9.6657 15.9873 9.79591C15.9874 9.92547 15.9848 10.0553 15.9711 10.1828L17.5096 10.1816Z" fill="#2F538F"/>
<path d="M13.5347 16.3735C13.7263 16.2764 13.9132 16.1689 14.0945 16.051L13.3264 14.7196L13.27 14.7577C13.1247 14.8499 12.9762 14.9369 12.8257 15.0139L12.7668 15.0423L13.5347 16.3735Z" fill="#2F538F"/>
<path d="M16.3636 13.7797C16.4811 13.5982 16.5883 13.4115 16.6851 13.2197L15.3525 12.4539L15.0306 13.0136L16.3636 13.7797Z" fill="#2F538F"/>
<path d="M15.025 6.58409L15.0637 6.64047C15.1556 6.78368 15.2426 6.93182 15.3196 7.0851L15.3504 7.1436L16.6791 6.37579C16.5844 6.18407 16.4745 5.99758 16.3567 5.81628L15.025 6.58409Z" fill="#2F538F"/>
<path d="M13.2624 4.84113L13.3188 4.8795L14.0849 3.54657C13.9034 3.42902 13.7164 3.31941 13.5246 3.22228L12.7588 4.55494L12.8177 4.58325C12.9684 4.65966 13.1169 4.74642 13.2624 4.84113Z" fill="#2F538F"/>
<path d="M6.12989 16.0579C6.31138 16.1755 6.49596 16.2827 6.68718 16.3795L7.45601 15.0496L6.896 14.7253L6.12989 16.0579Z" fill="#2F538F"/>
<path d="M9.72273 15.6651L9.72391 17.2014C9.85137 17.2129 9.98093 17.2152 10.1111 17.2151C10.2407 17.215 10.3703 17.2125 10.498 17.2008L10.4969 15.6645L10.4968 15.6483L9.72272 15.6489L9.72273 15.6651Z" fill="#2F538F"/>
<path d="M9.99973 0.322266C4.65164 0.322266 0.321289 4.65261 0.321289 10.0007C0.321289 15.3457 4.65164 19.6761 9.99973 19.6791C10.5775 19.6791 11.1455 19.6261 11.6952 19.5294C11.2175 19.2328 10.7961 18.855 10.4464 18.4178C10.2995 18.4272 10.1497 18.4303 9.99973 18.4303C7.6676 18.4272 5.56663 17.4876 4.03671 15.9607C2.51009 14.4341 1.57011 12.3298 1.57011 10.0007C1.57011 7.66862 2.51005 5.5673 4.03668 4.03765C5.56659 2.51077 7.6676 1.57109 9.99973 1.57109C12.3288 1.57109 14.4301 2.51077 15.9601 4.03765C17.4866 5.5673 18.4263 7.66858 18.4293 10.0007C18.4293 10.5535 18.3732 11.0934 18.2732 11.6148C18.6354 12.1801 18.901 12.7764 19.0662 13.3884C19.4629 12.3328 19.6782 11.1934 19.6782 10.0007C19.6751 4.65261 15.3448 0.322266 9.99973 0.322266Z" fill="#2F538F"/>
<path d="M19.6729 10.3272C19.8537 4.98217 15.6721 0.507951 10.3271 0.327209C4.98511 0.146571 0.510891 4.3281 0.327088 9.67303C0.307562 10.2505 0.341377 10.8199 0.419415 11.3726C0.732059 10.9052 1.12384 10.4968 1.57261 10.1621C1.56817 10.0149 1.57016 9.86517 1.57523 9.71524C1.65711 7.38455 2.66722 5.31653 4.24497 3.83909C5.82224 2.36493 7.95715 1.4966 10.2849 1.57532C12.6156 1.65413 14.684 2.66455 16.1612 4.242C17.6355 5.82264 18.5036 7.95421 18.4248 10.285C18.3461 12.6127 17.3359 14.6811 15.7582 16.1586C14.1779 17.6325 12.046 18.5007 9.71512 18.4249C9.16266 18.4062 8.62492 18.3319 8.10724 18.2144C7.53005 18.5572 6.92505 18.8025 6.30788 18.947C7.34943 19.3791 8.48088 19.6327 9.67291 19.673C15.0181 19.8507 19.4923 15.6692 19.6729 10.3272Z" fill="#2F538F"/>
</svg>
