<svg width="41" height="42" viewBox="0 0 41 42" fill="none" xmlns="http://www.w3.org/2000/svg">
<mask id="mask0_547_253" style="mask-type:luminance" maskUnits="userSpaceOnUse" x="-1" y="-1" width="43" height="44">
<path d="M41 41.3281V0.328125H0V41.3281H41Z" fill="white" stroke="white" stroke-width="1.5"/>
</mask>
<g mask="url(#mask0_547_253)">
<path d="M2.77246 7.41619H7.99451C8.71439 7.41619 9.29796 6.83255 9.29796 6.11267V0.890625" stroke="white" stroke-width="1.5" stroke-miterlimit="10" stroke-linecap="round" stroke-linejoin="round"/>
<path d="M31.1645 10.3302V2.05344C31.1645 1.33365 30.5809 0.75 29.8611 0.75H9.94177C9.52976 0.75 9.13454 0.913789 8.84316 1.20509L3.08644 6.96181C2.79508 7.25322 2.63138 7.64842 2.63135 8.0605V36.9671C2.63135 37.6872 3.21491 38.2707 3.9348 38.2707H6.93101" stroke="white" stroke-width="1.5" stroke-miterlimit="10" stroke-linecap="round" stroke-linejoin="round"/>
<path d="M9.70166 38.2695H13.5665" stroke="white" stroke-width="1.5" stroke-miterlimit="10" stroke-linecap="round" stroke-linejoin="round"/>
<path d="M6.47949 30.7208V12.9437C6.47949 11.9295 7.30159 11.1074 8.31568 11.1074C9.32969 11.1074 10.1518 11.9295 10.1518 12.9437V36.4958C10.1518 36.9965 10.0468 37.4919 9.84377 37.9496L8.61717 40.7141C8.50113 40.9754 8.13015 40.9754 8.0142 40.7141L6.7876 37.9496C6.58446 37.4919 6.4795 36.9967 6.47949 36.4958V33.5549" stroke="white" stroke-width="1.5" stroke-miterlimit="10" stroke-linecap="round" stroke-linejoin="round"/>
<path d="M6.47949 36.4941H10.1518" stroke="white" stroke-width="1.5" stroke-miterlimit="10" stroke-linecap="round" stroke-linejoin="round"/>
<path d="M10.1518 15.1797H6.47949" stroke="white" stroke-width="1.5" stroke-miterlimit="10" stroke-linecap="round" stroke-linejoin="round"/>
<path d="M6.47949 17.748H10.1518" stroke="white" stroke-width="1.5" stroke-miterlimit="10" stroke-linecap="round" stroke-linejoin="round"/>
<path d="M17.0996 25.7814C16.9987 25.7812 16.9018 25.7411 16.8304 25.6696C16.759 25.5982 16.7188 25.5013 16.7188 25.4002V22.4455C16.7188 22.3445 16.759 22.2477 16.8304 22.1762C16.9018 22.1047 16.9987 22.0646 17.0996 22.0645H20.6845C20.7855 22.0646 20.8823 22.1047 20.9538 22.1762C21.0253 22.2477 21.0654 22.3445 21.0655 22.4455V25.4002C21.0654 25.5013 21.0253 25.5982 20.9538 25.6696C20.8823 25.7411 20.7855 25.7812 20.6845 25.7814H17.0996Z" stroke="white" stroke-width="1.5" stroke-miterlimit="10" stroke-linecap="round" stroke-linejoin="round"/>
<path d="M24.1745 25.7814C24.0734 25.7812 23.9765 25.7411 23.9052 25.6696C23.8337 25.5982 23.7935 25.5013 23.7935 25.4002V22.4455C23.7935 22.3445 23.8337 22.2475 23.9052 22.1762C23.9765 22.1047 24.0734 22.0646 24.1745 22.0645H27.7592C27.8603 22.0646 27.9572 22.1047 28.0285 22.1762C28.1 22.2477 28.1401 22.3445 28.1402 22.4455V25.4002C28.1401 25.5013 28.1 25.5982 28.0285 25.6696C27.9572 25.7411 27.8603 25.7812 27.7592 25.7814H24.1745Z" stroke="white" stroke-width="1.5" stroke-miterlimit="10" stroke-linecap="round" stroke-linejoin="round"/>
<path d="M31.5651 25.7814C31.4641 25.7812 31.3672 25.7411 31.2958 25.6696C31.2243 25.5982 31.1842 25.5013 31.1841 25.4002V22.4455C31.1842 22.3445 31.2243 22.2475 31.2958 22.1762C31.3672 22.1047 31.4641 22.0646 31.5651 22.0645H35.1498C35.2509 22.0646 35.3478 22.1047 35.4192 22.1762C35.4906 22.2475 35.5309 22.3445 35.531 22.4455V25.4002C35.5309 25.5013 35.4906 25.5982 35.4192 25.6696C35.3478 25.7411 35.2509 25.7812 35.1498 25.7814H31.5651Z" stroke="white" stroke-width="1.5" stroke-miterlimit="10" stroke-linecap="round" stroke-linejoin="round"/>
<path d="M17.0996 32.1388C16.9987 32.1387 16.9018 32.0985 16.8304 32.027C16.759 31.9556 16.7188 31.8587 16.7188 31.7576V28.8029C16.7188 28.7018 16.759 28.605 16.8304 28.5336C16.9018 28.4621 16.9987 28.422 17.0996 28.4219H20.6845C20.7855 28.422 20.8823 28.4621 20.9538 28.5336C21.0251 28.605 21.0654 28.7018 21.0655 28.8029V31.7576C21.0654 31.8587 21.0253 31.9556 20.9538 32.027C20.8823 32.0985 20.7855 32.1387 20.6845 32.1388H17.0996Z" stroke="white" stroke-width="1.5" stroke-miterlimit="10" stroke-linecap="round" stroke-linejoin="round"/>
<path d="M24.1745 32.1388C24.0734 32.1387 23.9765 32.0985 23.9052 32.027C23.8337 31.9556 23.7935 31.8587 23.7935 31.7576V28.8029C23.7936 28.7018 23.8337 28.605 23.9052 28.5335C23.9767 28.4621 24.0735 28.422 24.1745 28.4219H27.7592C27.8602 28.422 27.957 28.4621 28.0285 28.5336C28.1 28.605 28.1401 28.7018 28.1402 28.8029V31.7576C28.1401 31.8587 28.1 31.9556 28.0285 32.027C27.9572 32.0985 27.8603 32.1387 27.7592 32.1388H24.1745Z" stroke="white" stroke-width="1.5" stroke-miterlimit="10" stroke-linecap="round" stroke-linejoin="round"/>
<path d="M31.5651 32.1388C31.4641 32.1387 31.3672 32.0985 31.2958 32.027C31.2243 31.9556 31.1842 31.8587 31.1841 31.7576V28.8029C31.1842 28.7018 31.2243 28.605 31.2958 28.5335C31.3673 28.4621 31.4641 28.422 31.5651 28.4219H35.1498C35.2509 28.422 35.3478 28.4621 35.4191 28.5335C35.4906 28.605 35.5309 28.7018 35.531 28.8029V31.7576C35.5309 31.8587 35.4906 31.9556 35.4192 32.027C35.3478 32.0985 35.2509 32.1387 35.1498 32.1388H31.5651Z" stroke="white" stroke-width="1.5" stroke-miterlimit="10" stroke-linecap="round" stroke-linejoin="round"/>
<path d="M17.0996 38.4962C16.9987 38.4961 16.9018 38.4559 16.8304 38.3845C16.759 38.313 16.7188 38.2163 16.7188 38.1152V35.1603C16.7188 35.0594 16.759 34.9625 16.8304 34.891C16.9018 34.8196 16.9987 34.7794 17.0996 34.7793H20.6845C20.7855 34.7794 20.8823 34.8196 20.9538 34.891C21.0253 34.9625 21.0654 35.0594 21.0655 35.1603V38.1152C21.0654 38.2163 21.0251 38.313 20.9538 38.3845C20.8823 38.4559 20.7855 38.4961 20.6845 38.4962H17.0996Z" stroke="white" stroke-width="1.5" stroke-miterlimit="10" stroke-linecap="round" stroke-linejoin="round"/>
<path d="M35.1495 34.7793H24.1745C24.1244 34.7793 24.0749 34.7891 24.0287 34.8083C23.9825 34.8274 23.9404 34.8555 23.9051 34.8909C23.8696 34.9262 23.8415 34.9683 23.8224 35.0145C23.8032 35.0607 23.7935 35.1103 23.7935 35.1603V38.1151C23.7935 38.1651 23.8032 38.2148 23.8224 38.261C23.8415 38.3072 23.8696 38.3492 23.9051 38.3846C23.9404 38.42 23.9825 38.448 24.0287 38.4672C24.0749 38.4863 24.1244 38.4962 24.1745 38.4962H35.1495C35.2506 38.4961 35.3475 38.4559 35.4189 38.3845C35.4903 38.313 35.5306 38.2161 35.5307 38.1151V35.1603C35.5306 35.0594 35.4903 34.9624 35.4189 34.891C35.3475 34.8196 35.2506 34.7794 35.1495 34.7793Z" stroke="white" stroke-width="1.5" stroke-miterlimit="10" stroke-linecap="round" stroke-linejoin="round"/>
<path d="M36.733 10.3281H15.2012C14.2981 10.3281 13.5659 11.0603 13.5659 11.9634V39.2723C13.5659 40.1754 14.2981 40.9075 15.2012 40.9075H36.733C37.6362 40.9075 38.3683 40.1754 38.3683 39.2723V11.9633C38.3683 11.0603 37.6362 10.3281 36.733 10.3281Z" stroke="white" stroke-width="1.5" stroke-miterlimit="10" stroke-linecap="round" stroke-linejoin="round"/>
<path d="M22.4836 13.1582H34.8498C34.9404 13.1582 35.0301 13.176 35.1137 13.2106C35.1973 13.2453 35.2733 13.2961 35.3374 13.3601C35.4013 13.4241 35.4521 13.5002 35.4868 13.5838C35.5214 13.6674 35.5393 13.7571 35.5393 13.8477V18.595C35.5393 18.6856 35.5214 18.7752 35.4868 18.8588C35.4521 18.9425 35.4013 19.0185 35.3374 19.0826C35.2733 19.1466 35.1973 19.1974 35.1137 19.2319C35.0301 19.2666 34.9404 19.2845 34.8498 19.2845H17.0846C16.994 19.2845 16.9044 19.2666 16.8208 19.2321C16.7371 19.1974 16.6611 19.1466 16.597 19.0826C16.533 19.0185 16.4822 18.9425 16.4475 18.8588C16.4129 18.7752 16.395 18.6856 16.395 18.595V13.8477C16.395 13.7571 16.4129 13.6674 16.4475 13.5838C16.4822 13.5001 16.533 13.4241 16.597 13.3601C16.6611 13.2961 16.7371 13.2453 16.8208 13.2106C16.9044 13.176 16.994 13.1582 17.0846 13.1582H19.6493" stroke="white" stroke-width="1.5" stroke-miterlimit="10" stroke-linecap="round" stroke-linejoin="round"/>
</g>
</svg>
