<svg width="38" height="30" viewBox="0 0 38 30" fill="none" xmlns="http://www.w3.org/2000/svg">
<path d="M34.713 9.93907H34.6703L31.2973 2.37132C30.9822 1.66567 30.4688 1.06618 29.8191 0.645341C29.1695 0.224506 28.4115 0.000356257 27.6369 0H9.74633C8.9717 0.00041012 8.21378 0.224586 7.56423 0.645419C6.91467 1.06625 6.4013 1.66572 6.0862 2.37132L2.71287 9.93907H2.67023C1.96228 9.93986 1.28356 10.2206 0.782969 10.7198C0.282377 11.2189 0.000795096 11.8957 0 12.6016V21.9205C0.000795096 22.6264 0.282377 23.3031 0.782969 23.8023C1.28356 24.3014 1.96228 24.5822 2.67023 24.583V27.9566C2.67085 28.486 2.88204 28.9936 3.25748 29.3679C3.63292 29.7423 4.14195 29.9529 4.6729 29.9535H9.34579C9.87675 29.9529 10.3858 29.7423 10.7612 29.3679C11.1367 28.9936 11.3478 28.486 11.3485 27.9566V24.583H26.0347V27.9566C26.0353 28.486 26.2465 28.9936 26.622 29.3679C26.9974 29.7423 27.5064 29.9529 28.0374 29.9535H32.7103C33.2412 29.9529 33.7503 29.7423 34.1257 29.3679C34.5011 28.9936 34.7123 28.486 34.713 27.9566V24.583C35.4209 24.5822 36.0996 24.3014 36.6002 23.8023C37.1008 23.3031 37.3824 22.6264 37.3832 21.9205V12.6016C37.3824 11.8957 37.1008 11.2189 36.6002 10.7198C36.0996 10.2206 35.4209 9.93986 34.713 9.93907ZM8.52595 3.45297C8.631 3.21771 8.80217 3.01785 9.01876 2.87756C9.23534 2.73728 9.48806 2.66259 9.74633 2.66253H27.6369C27.8951 2.66267 28.1477 2.73739 28.3642 2.87767C28.5807 3.01795 28.7519 3.21777 28.8569 3.45297L31.7479 9.93898H5.63493L8.52595 3.45297ZM8.67824 27.291H5.34045V24.583H8.67824V27.291ZM32.0427 27.291H28.7049V24.583H32.0427V27.291ZM34.713 21.9205H2.67023V12.6016H34.713V21.9205Z" fill="#2F538F"/>
<path d="M11.962 16H5.41992V18.6047H11.962V16Z" fill="#2F538F"/>
<path d="M31.962 16H25.4199V18.6047H31.962V16Z" fill="#2F538F"/>
</svg>
