<svg width="40" height="40" viewBox="0 0 40 40" fill="none" xmlns="http://www.w3.org/2000/svg">
<path d="M37.1407 40C36.9469 39.9999 36.7559 39.954 36.5839 39.8662C36.4118 39.7784 36.2637 39.6512 36.1519 39.4953C36.0401 39.3394 35.9679 39.1594 35.9414 38.9704C35.9149 38.7813 35.9349 38.5888 35.9996 38.409C38.1619 32.3929 38.1134 28.1074 35.8543 25.6719C31.9053 21.4163 22.3043 23.7636 22.2074 23.7946L20.6969 24.1739V10.5208L20.7163 10.4171C20.8945 9.57502 20.7775 8.69834 20.3844 7.93022C20.2927 7.82994 20.1776 7.75303 20.0491 7.70608C19.9207 7.65914 19.7826 7.64354 19.6467 7.66065C19.4998 7.64454 19.3512 7.66282 19.2129 7.71402C19.0746 7.76521 18.9505 7.84789 18.8508 7.95527C18.4392 8.69449 18.2916 9.54841 18.4317 10.3801L18.445 10.5518V28.5797L17.0459 28.3651C14.9067 28.0323 14.2163 28.3889 14.129 28.5535C13.573 29.627 16.6122 34.1116 20.5055 37.9617C20.6178 38.0727 20.7067 38.2045 20.7673 38.3494C20.8279 38.4943 20.859 38.6496 20.8587 38.8063C20.8583 38.963 20.8266 39.1181 20.7654 39.2627C20.7042 39.4074 20.6146 39.5388 20.5018 39.6494C20.3891 39.7599 20.2553 39.8475 20.1081 39.9072C19.9609 39.9669 19.8032 39.9974 19.6441 39.9971C19.4849 39.9968 19.3273 39.9656 19.1804 39.9053C19.0335 39.845 18.9001 39.7568 18.7878 39.6458C16.7516 37.6313 10.2443 30.8054 11.9717 27.4705C12.753 25.9617 14.6148 25.7709 16.0223 25.8496V10.6329C15.7924 9.1481 16.1487 7.63296 17.0181 6.39878C17.345 6.03255 17.7503 5.74215 18.2048 5.5485C18.6593 5.35486 19.1517 5.26275 19.6467 5.27879C20.1379 5.26043 20.6269 5.35228 21.0768 5.54734C21.5267 5.74239 21.9258 6.03558 22.2437 6.40475C23.0926 7.67973 23.4065 9.22901 23.1195 10.7271V21.1718C26.3211 20.616 33.7562 19.8776 37.6398 24.0581C40.5542 27.1938 40.771 32.2879 38.2842 39.2057C38.2005 39.4383 38.0455 39.6396 37.8407 39.7819C37.6359 39.9242 37.3914 40.0004 37.1407 40Z" fill="#2F538F"/>
<path d="M5.87216 11.4651C5.52077 11.4658 5.17276 11.3981 4.84803 11.2659C4.52331 11.1336 4.22834 10.9395 3.98012 10.6946L0.340067 7.11044C0.119414 6.88549 -0.00271414 6.58425 4.57797e-05 6.27152C0.0028057 5.95879 0.130189 5.65963 0.35478 5.4385C0.579371 5.21736 0.883197 5.09193 1.2008 5.08921C1.51841 5.08649 1.82443 5.20667 2.05289 5.42394L5.69413 9.00806C5.7179 9.03171 5.74619 9.05049 5.77738 9.06331C5.80857 9.07613 5.84206 9.08275 5.87586 9.08275C5.90966 9.08275 5.94308 9.07613 5.97427 9.06331C6.00546 9.05049 6.03375 9.03171 6.05752 9.00806L13.9579 1.23035C14.1863 1.01309 14.4923 0.892835 14.8099 0.895553C15.1275 0.89827 15.4313 1.02377 15.6559 1.24491C15.8805 1.46605 16.0079 1.76513 16.0106 2.07786C16.0134 2.39059 15.8913 2.69191 15.6707 2.91685L7.76916 10.6957C7.52027 10.941 7.22448 11.1353 6.89888 11.2673C6.57329 11.3994 6.22429 11.4666 5.87216 11.4651Z" fill="#2F538F"/>
<path d="M38.1649 12.361C37.8436 12.361 37.5355 12.2352 37.3084 12.0115L27.1623 2.02135C26.9417 1.7964 26.8196 1.49508 26.8223 1.18235C26.8251 0.869626 26.9525 0.570468 27.177 0.349329C27.4016 0.128189 27.7055 0.00276259 28.0231 4.50763e-05C28.3407 -0.00267244 28.6467 0.117579 28.8752 0.334842L39.0212 10.325C39.1906 10.4918 39.3059 10.7043 39.3526 10.9356C39.3993 11.167 39.3754 11.4068 39.2837 11.6247C39.192 11.8426 39.0368 12.0288 38.8377 12.1599C38.6385 12.2909 38.4044 12.361 38.1649 12.361Z" fill="#2F538F"/>
<path d="M28.0192 12.361C27.7796 12.361 27.5455 12.2909 27.3464 12.1599C27.1472 12.0288 26.992 11.8426 26.9003 11.6247C26.8087 11.4068 26.7846 11.167 26.8314 10.9356C26.8781 10.7043 26.9934 10.4918 27.1628 10.325L37.3089 0.334842C37.5373 0.117579 37.8434 -0.00267244 38.161 4.50763e-05C38.4786 0.00276259 38.7823 0.128189 39.0069 0.349329C39.2315 0.570468 39.359 0.869626 39.3617 1.18235C39.3645 1.49508 39.2424 1.7964 39.0217 2.02135L28.8756 12.0115C28.6485 12.2352 28.3404 12.361 28.0192 12.361Z" fill="#2F538F"/>
</svg>
