<svg width="35" height="35" viewBox="0 0 35 35" fill="none" xmlns="http://www.w3.org/2000/svg">
<path d="M29.75 0H5.25C2.35051 0 0 2.35051 0 5.25V29.75C0 32.6495 2.35051 35 5.25 35H29.75C32.6495 35 35 32.6495 35 29.75V5.25C35 2.35051 32.6495 0 29.75 0Z" fill="#37AEE2"/>
<path d="M13.5537 27.5303C12.7968 27.5303 12.8656 27.2577 12.6591 26.5761L10.457 19.419L27.3168 9.60352" fill="#C8DAEA"/>
<path d="M13.6582 27.5298C14.1235 27.5298 14.3894 27.2586 14.7218 26.9874L17.7131 24.0725L13.9906 21.7676" fill="#A9C9DD"/>
<path d="M13.9223 21.7616L23.1464 28.5124C24.103 29.1261 24.9229 28.7852 25.1962 27.5577L28.9541 9.96466C29.2958 8.46448 28.3392 7.78257 27.3143 8.25991L5.38156 16.7155C3.94671 17.261 3.94671 18.1475 5.10825 18.4884L10.7793 20.2614L23.7613 12.0104C24.3763 11.6694 24.9229 11.8058 24.5129 12.2831" fill="#F6FBFE"/>
</svg>
