<svg width="18" height="18" viewBox="0 0 18 18" fill="none" xmlns="http://www.w3.org/2000/svg">
<path d="M9.00001 0C7.21998 0 5.47992 0.527841 3.99987 1.51677C2.51983 2.50571 1.36628 3.91132 0.685089 5.55585C0.00389955 7.20039 -0.174331 9.00999 0.172937 10.7558C0.520204 12.5017 1.37737 14.1053 2.63604 15.364C3.89472 16.6226 5.49837 17.4798 7.2442 17.8271C8.99003 18.1743 10.7996 17.9961 12.4442 17.3149C14.0887 16.6337 15.4943 15.4802 16.4832 14.0001C17.4722 12.5201 18 10.78 18 9.00001C18 6.61306 17.0518 4.32387 15.364 2.63604C13.6761 0.948212 11.387 0 9.00001 0ZM9.00001 16.7143C7.47427 16.7143 5.98279 16.2619 4.71418 15.4142C3.44557 14.5665 2.45681 13.3617 1.87293 11.9521C1.28906 10.5425 1.13629 8.99145 1.43395 7.49502C1.7316 5.9986 2.46632 4.62404 3.54518 3.54518C4.62405 2.46632 5.9986 1.7316 7.49503 1.43394C8.99145 1.13629 10.5425 1.28905 11.9521 1.87293C13.3617 2.45681 14.5666 3.44557 15.4142 4.71418C16.2619 5.98278 16.7143 7.47426 16.7143 9.00001C16.7143 11.046 15.9015 13.0081 14.4548 14.4548C13.0081 15.9015 11.046 16.7143 9.00001 16.7143Z" fill="#2F538F"/>
<path d="M7.07178 9.00056H8.35749V14.1434H9.64321V7.71484H7.07178V9.00056Z" fill="#2F538F"/>
<path d="M9.00056 6.42885C9.71064 6.42885 10.2863 5.85322 10.2863 5.14314C10.2863 4.43306 9.71064 3.85742 9.00056 3.85742C8.29048 3.85742 7.71484 4.43306 7.71484 5.14314C7.71484 5.85322 8.29048 6.42885 9.00056 6.42885Z" fill="#2F538F"/>
</svg>
