<svg width="41" height="41" viewBox="0 0 41 41" fill="none" xmlns="http://www.w3.org/2000/svg">
<path d="M20.5 0C9.17767 0 0 9.17767 0 20.5C0 31.8223 9.17767 41 20.5 41C31.8223 41 41 31.8223 41 20.5C41 9.17767 31.8223 0 20.5 0ZM20.5 37.7969C10.9469 37.7969 3.20312 30.0531 3.20312 20.5C3.20312 10.9469 10.9469 3.20312 20.5 3.20312C30.0531 3.20312 37.7969 10.9469 37.7969 20.5C37.7969 30.0531 30.0531 37.7969 20.5 37.7969Z" fill="#2F538F"/>
<path d="M11.8936 22.4866C10.6297 23.7427 9.8001 25.4441 10.3046 27.0283C10.3674 27.2254 12.1196 26.5867 12.1196 26.5867L12.9668 24.6708L15.3202 24.2217L16.0055 24.904L16.6908 25.5851L16.2376 27.9226L14.311 28.7646C14.311 28.7646 13.6684 30.5058 13.8667 30.5695C15.4608 31.0697 17.1727 30.2452 18.4367 28.9879C19.8299 27.6046 20.1399 25.5638 19.3919 23.8738L30.1698 14.0932L30.7183 12.4592L29.6213 11.3702L28.5255 10.2812L26.8813 10.8251L17.0397 21.5374C15.3403 20.7939 13.2868 21.1032 11.8936 22.4866Z" fill="#2F538F"/>
</svg>
