<svg width="29" height="36" viewBox="0 0 29 36" fill="none" xmlns="http://www.w3.org/2000/svg">
<path d="M14.0361 1C17.4906 1.00403 20.8032 2.3818 23.2451 4.83203C25.6871 7.28235 27.0586 10.6051 27.0586 14.0693C27.0585 15.5998 26.4115 17.546 25.3008 19.7168C24.2022 21.8638 22.706 24.1251 21.1299 26.2549C18.3457 30.0172 15.3633 33.3009 14.0293 34.7217C12.6926 33.294 9.71222 30.0167 6.92871 26.2607C5.3527 24.1341 3.85622 21.8755 2.75781 19.7285C1.64747 17.5582 1.00008 15.6085 1 14.0693C1 10.6025 2.37412 7.27789 4.81934 4.82715C7.26419 2.37681 10.5796 1.00038 14.0361 1ZM16.4014 8.51172C15.3061 8.05394 14.0994 7.93039 12.9346 8.1582C11.7699 8.38602 10.6992 8.95465 9.85645 9.79102C9.01377 10.6274 8.43666 11.6947 8.19824 12.8584C7.95992 14.0221 8.0701 15.231 8.51562 16.332C8.96125 17.433 9.72257 18.3779 10.7031 19.0469C11.6838 19.7158 12.8407 20.0801 14.0273 20.0918C14.8219 20.0996 15.6105 19.9487 16.3467 19.6494C17.0829 19.3501 17.7531 18.9078 18.3174 18.3477C18.8816 17.7876 19.3292 17.121 19.6348 16.3867C19.9403 15.6525 20.0977 14.8647 20.0977 14.0693C20.0976 12.8813 19.7465 11.7194 19.0889 10.7305C18.4313 9.7416 17.4964 8.96951 16.4014 8.51172Z" stroke="#2F538F" stroke-width="2"/>
</svg>
