<svg width="24" height="18" viewBox="0 0 24 18" fill="none" xmlns="http://www.w3.org/2000/svg">
<path d="M13.7146 4.2627C12.2953 4.2627 11.1432 5.53513 11.1432 7.10469C11.1432 8.67424 12.2953 9.94758 13.7146 9.94758C15.1356 9.94758 16.2861 8.67514 16.2861 7.10469C16.2861 5.53423 15.1348 4.2627 13.7146 4.2627ZM13.7146 8.99934C12.77 8.99934 12.0003 8.14955 12.0003 7.10378C12.0003 6.05802 12.7692 5.20912 13.7146 5.20912C14.6608 5.20912 15.4289 6.05892 15.4289 7.10378C15.4289 8.14864 14.66 8.99934 13.7146 8.99934Z" fill="#2F538F"/>
<path d="M3.42834 0V14.2099H23.9998V0H3.42834ZM23.1435 3.20503V13.2626H4.28631V0.94733H23.1435V3.20503Z" fill="#2F538F"/>
<path d="M19.4036 15.1581H2.57199V1.89551H1.71484V16.1055H22.2871V15.1581H21.43H19.4036Z" fill="#2F538F"/>
<path d="M17.6887 17.0527H0.857144V3.79004H0V18H20.5723V17.0527H19.7151H17.6887Z" fill="#2F538F"/>
<path d="M5.57227 1.9248H8.1437V2.87213H5.57227V1.9248Z" fill="#2F538F"/>
<path d="M5.57227 11.3691H8.1437V12.3165H5.57227V11.3691Z" fill="#2F538F"/>
<path d="M19.2865 1.9248H21.8579V2.87213H19.2865V1.9248Z" fill="#2F538F"/>
<path d="M19.2865 11.3691H21.8579V12.3165H19.2865V11.3691Z" fill="#2F538F"/>
</svg>
