<svg width="61" height="41" viewBox="0 0 61 41" fill="none" xmlns="http://www.w3.org/2000/svg">
<path d="M34.5246 9.71094C30.9516 9.71094 28.0513 12.6092 28.0513 16.1843C28.0513 19.7594 30.9516 22.6597 34.5246 22.6597C38.1018 22.6597 40.998 19.7614 40.998 16.1843C40.998 12.6072 38.0997 9.71094 34.5246 9.71094ZM34.5246 20.4999C32.1468 20.4999 30.2091 18.5643 30.2091 16.1823C30.2091 13.8002 32.1447 11.8667 34.5246 11.8667C36.9066 11.8667 38.8402 13.8023 38.8402 16.1823C38.8402 18.5622 36.9046 20.4999 34.5246 20.4999Z" fill="white"/>
<path d="M8.6311 0V32.3668H60.4181V0H8.6311ZM58.2623 7.30028V30.2091H10.7909V2.15779H58.2623V7.30028Z" fill="white"/>
<path d="M48.8454 34.5267H6.47334V4.31763H4.31555V36.6845H56.1046V34.5267H53.9468H48.8454Z" fill="white"/>
<path d="M44.5299 38.8419H2.15779V8.63281H0V40.9997H51.789V38.8419H49.6312H44.5299Z" fill="white"/>
<path d="M14.0269 4.38379H20.5002V6.54158H14.0269V4.38379Z" fill="white"/>
<path d="M14.0267 25.8955H20.5001V28.0533H14.0267V25.8955Z" fill="white"/>
<path d="M48.5513 4.38379H55.0246V6.54158H48.5513V4.38379Z" fill="white"/>
<path d="M48.5514 25.8955H55.0248V28.0533H48.5514V25.8955Z" fill="white"/>
</svg>
