<svg width="20" height="24" viewBox="0 0 20 24" fill="none" xmlns="http://www.w3.org/2000/svg">
<path d="M15.5028 0H7.52817H6.91022L6.47356 0.436621L0.436621 6.47393L0 6.91055V7.52821V19.975C0 22.1951 1.80611 24.0015 4.02662 24.0015H15.5028C17.7227 24.0015 19.5288 22.1951 19.5288 19.975V4.02662C19.5288 1.80611 17.7227 0 15.5028 0ZM18.0382 19.9749C18.0382 21.3755 16.9031 22.5106 15.5028 22.5106H4.02662C2.62572 22.5106 1.49062 21.3755 1.49062 19.9749V7.52817H5.41505C6.58161 7.52817 7.52817 6.58227 7.52817 5.41538V1.4909H15.5028C16.9031 1.4909 18.0382 2.62601 18.0382 4.02662V19.9749Z" fill="url(#paint0_linear_530_1165)"/>
<path d="M5.82415 11.8496H4.48677C4.23213 11.8496 4.07959 12.0152 4.07959 12.2633V15.7207C4.07959 16.0202 4.27666 16.2176 4.55029 16.2176C4.81801 16.2176 5.01504 16.0202 5.01504 15.7207V14.6704C5.01504 14.6448 5.02812 14.6321 5.05367 14.6321H5.82415C6.76616 14.6321 7.33306 14.059 7.33306 13.2439C7.3331 12.4162 6.77273 11.8496 5.82415 11.8496ZM5.76658 13.8233H5.05367C5.02812 13.8233 5.01504 13.8106 5.01504 13.7853V12.6964C5.01504 12.6708 5.02812 12.6581 5.05367 12.6581H5.76658C6.1613 12.6581 6.39695 12.8938 6.39695 13.244C6.397 13.5942 6.1613 13.8233 5.76658 13.8233Z" fill="url(#paint1_linear_530_1165)"/>
<path d="M9.49188 11.8496H8.46675C8.21211 11.8496 8.05957 12.0152 8.05957 12.2633V15.7718C8.05957 16.0202 8.21206 16.1793 8.46675 16.1793H9.49188C10.4149 16.1793 10.9884 15.8864 11.2175 15.1797C11.3 14.9312 11.3451 14.6321 11.3451 14.0144C11.3451 13.3968 11.2999 13.0976 11.2175 12.8492C10.9883 12.1425 10.4149 11.8496 9.49188 11.8496ZM10.32 14.855C10.2113 15.1987 9.89972 15.3453 9.46633 15.3453H9.03365C9.0081 15.3453 8.99502 15.3325 8.99502 15.307V12.7219C8.99502 12.6964 9.0081 12.6836 9.03365 12.6836H9.46633C9.89972 12.6836 10.2113 12.8302 10.32 13.174C10.3645 13.3206 10.3959 13.5752 10.3959 14.0145C10.3959 14.4537 10.3645 14.7084 10.32 14.855Z" fill="url(#paint2_linear_530_1165)"/>
<path d="M14.6946 11.8496H12.5939C12.3392 11.8496 12.186 12.0152 12.186 12.2633V15.7207C12.186 16.0202 12.3838 16.2176 12.6574 16.2176C12.9245 16.2176 13.1221 16.0202 13.1221 15.7207V14.4855C13.1221 14.4602 13.1346 14.4475 13.1601 14.4475H14.383C14.6566 14.4475 14.8157 14.2819 14.8157 14.0462C14.8157 13.8105 14.6566 13.6453 14.383 13.6453H13.1601C13.1346 13.6453 13.1221 13.6325 13.1221 13.607V12.6964C13.1221 12.6708 13.1346 12.6581 13.1601 12.6581H14.6946C14.9558 12.6581 15.128 12.4863 15.128 12.2572C15.1279 12.0214 14.9557 11.8496 14.6946 11.8496Z" fill="url(#paint3_linear_530_1165)"/>
<defs>
<linearGradient id="paint0_linear_530_1165" x1="9.76438" y1="0" x2="9.76438" y2="24.0015" gradientUnits="userSpaceOnUse">
<stop stop-color="#FF5000"/>
<stop offset="1" stop-color="#FF6C29"/>
</linearGradient>
<linearGradient id="paint1_linear_530_1165" x1="5.70632" y1="11.8496" x2="5.70632" y2="16.2176" gradientUnits="userSpaceOnUse">
<stop stop-color="#FF5000"/>
<stop offset="1" stop-color="#FF6C29"/>
</linearGradient>
<linearGradient id="paint2_linear_530_1165" x1="9.70234" y1="11.8496" x2="9.70234" y2="16.1793" gradientUnits="userSpaceOnUse">
<stop stop-color="#FF5000"/>
<stop offset="1" stop-color="#FF6C29"/>
</linearGradient>
<linearGradient id="paint3_linear_530_1165" x1="13.657" y1="11.8496" x2="13.657" y2="16.2176" gradientUnits="userSpaceOnUse">
<stop stop-color="#FF5000"/>
<stop offset="1" stop-color="#FF6C29"/>
</linearGradient>
</defs>
</svg>
