<svg width="41" height="41" viewBox="0 0 41 41" fill="none" xmlns="http://www.w3.org/2000/svg">
<mask id="mask0_527_1361" style="mask-type:luminance" maskUnits="userSpaceOnUse" x="0" y="0" width="41" height="41">
<path d="M40 1V40H1V1H40Z" fill="white" stroke="white" stroke-width="2"/>
</mask>
<g mask="url(#mask0_527_1361)">
<path d="M39.7188 20.5013C39.7188 31.1152 31.1139 39.72 20.5 39.72C9.88612 39.72 1.28125 31.1152 1.28125 20.5013M39.7188 20.5013C39.7188 9.88741 31.1139 1.28253 20.5 1.28253C9.88612 1.28253 1.28125 9.88741 1.28125 20.5013M39.7188 20.5013H1.28125M15.1623 2.0345C12.0399 7.4734 10.2551 13.7797 10.2551 20.5012C10.2551 27.2226 12.0386 33.5289 15.1623 38.9678M25.8427 38.9655C28.9664 33.5279 30.7499 27.2228 30.7499 20.5014C30.7499 13.7825 28.9651 7.48007 25.8452 2.03732M35.4321 32.5944C30.8631 30.5892 25.8137 29.4745 20.5055 29.4745C15.1922 29.4745 10.1402 30.5918 5.56742 32.5995M5.57164 8.40948C10.1406 10.4185 15.1925 11.5332 20.5046 11.5332C25.8154 11.5332 30.8648 10.4172 35.4376 8.40948M20.4987 1.28125V39.7188" stroke="#2F538F" stroke-width="2" stroke-linecap="round" stroke-linejoin="round"/>
</g>
</svg>
