<svg width="35" height="41" viewBox="0 0 35 41" fill="none" xmlns="http://www.w3.org/2000/svg">
<path d="M19.3755 32.8V30.7368C19.3755 29.2379 19.6773 27.8712 20.2809 26.6368C20.8845 25.4024 21.7726 24.4148 22.9453 23.6742C24.118 22.9159 25.5408 22.5368 27.2136 22.5368C28.9209 22.5368 30.3523 22.9071 31.5078 23.6477C32.6632 24.3884 33.5341 25.3847 34.1205 26.6368C34.7068 27.8712 35 29.2379 35 30.7368V32.8C35 34.2989 34.6982 35.6744 34.0946 36.9265C33.5083 38.1609 32.6373 39.1484 31.4819 39.889C30.3264 40.6297 28.9037 41 27.2136 41C25.5235 41 24.0921 40.6297 22.9194 39.889C21.7467 39.1484 20.8586 38.1609 20.255 36.9265C19.6686 35.6744 19.3755 34.2989 19.3755 32.8ZM23.7472 30.7368V32.8C23.7472 33.911 24.0059 34.9161 24.5233 35.8155C25.0406 36.7148 25.9374 37.1645 27.2136 37.1645C28.4725 37.1645 29.3521 36.7148 29.8522 35.8155C30.3523 34.9161 30.6024 33.911 30.6024 32.8V30.7368C30.6024 29.6258 30.3609 28.6295 29.878 27.7477C29.3952 26.8484 28.507 26.3987 27.2136 26.3987C25.9547 26.3987 25.0579 26.8484 24.5233 27.7477C24.0059 28.6295 23.7472 29.6258 23.7472 30.7368ZM0 10.2632V8.2C0 6.70108 0.301798 5.33441 0.905395 4.1C1.52624 2.84796 2.41439 1.85161 3.56984 1.11097C4.74255 0.370323 6.15669 0 7.81227 0C9.51959 0 10.951 0.370323 12.1064 1.11097C13.2791 1.85161 14.1587 2.84796 14.745 4.1C15.3314 5.33441 15.6159 6.70108 15.5987 8.2V10.2632C15.6159 11.7445 15.3227 13.1112 14.7191 14.3632C14.1155 15.5976 13.236 16.594 12.0806 17.3523C10.9251 18.0929 9.50234 18.4632 7.81227 18.4632C6.1222 18.4632 4.69081 18.0929 3.51811 17.3523C2.36265 16.594 1.48312 15.5976 0.879527 14.3632C0.293176 13.1112 0 11.7445 0 10.2632ZM4.37177 8.2V10.2632C4.37177 11.3742 4.63045 12.3794 5.14782 13.2787C5.66519 14.1781 6.55334 14.6189 7.81227 14.6013C9.08844 14.6189 9.97659 14.1781 10.4767 13.2787C10.9768 12.3794 11.2269 11.3742 11.2269 10.2632V8.2C11.2269 7.08903 10.9855 6.08387 10.5026 5.18452C10.0197 4.28516 9.12294 3.8443 7.81227 3.86194C6.57058 3.8443 5.68243 4.28516 5.14782 5.18452C4.63045 6.08387 4.37177 7.08903 4.37177 8.2ZM1.78492 40.2065L28.2742 0.793548H32.7753L6.28603 40.2065H1.78492Z" fill="#2F538F"/>
</svg>
