<svg width="48" height="42" viewBox="0 0 48 42" fill="none" xmlns="http://www.w3.org/2000/svg">
<path d="M25.2249 36.0479V39.125C25.2248 39.8914 24.583 40.5322 23.8167 40.5322H8.14282C7.37643 40.5322 6.73472 39.8914 6.73462 39.125V36.0479H25.2249Z" stroke="#2F538F" stroke-width="1.5"/>
<path d="M2.1582 16.0579H5.23438V34.5481H2.1582C1.39175 34.5481 0.75 33.9063 0.75 33.1399V17.4661C0.75 16.6996 1.39176 16.0579 2.1582 16.0579Z" stroke="#2F538F" stroke-width="1.5"/>
<path d="M47.2505 36.0071V40.5325H29.4116V36.0071H47.2505Z" stroke="#2F538F" stroke-width="1.5"/>
<path d="M40.8989 0.75V3.03613H30.688L29.1392 0.75H40.8989Z" stroke="#2F538F" stroke-width="1.5"/>
<path d="M40.8578 6.04272V8.30542C40.8578 10.7818 38.8732 12.7664 36.3968 12.7664C33.9205 12.7663 31.9359 10.7818 31.9359 8.30542V7.55542H29.5345L30.7005 6.04272H40.8578Z" stroke="#2F538F" stroke-width="1.5"/>
<path d="M44.5393 16.0579C46.0386 16.0579 47.2503 17.2695 47.2503 18.7688V31.8606H32.7942L37.3255 25.7278L44.469 16.0579H44.5393Z" stroke="#2F538F" stroke-width="1.5"/>
<path d="M27.9694 16.0579H39.3063L29.4118 29.4377V17.5198L28.0592 19.3391L19.2301 31.22C18.703 31.9135 17.7368 32.0495 17.0485 31.554L17.027 31.5383L16.8092 31.3938C16.1071 30.8511 15.9729 29.8986 16.4753 29.2375L16.4801 29.2307L23.5231 19.7444L23.528 19.7385L23.5299 19.7366C23.5312 19.7349 23.5324 19.732 23.5348 19.7288C23.5397 19.722 23.5476 19.7117 23.5573 19.6985C23.5766 19.672 23.6046 19.6325 23.6413 19.5823C23.7148 19.4815 23.8218 19.3357 23.9538 19.1555C24.2178 18.795 24.5838 18.2975 24.9899 17.7493C25.32 17.3037 25.8404 16.8704 26.4196 16.5491C27.0069 16.2233 27.5716 16.0579 27.9694 16.0579Z" stroke="#2F538F" stroke-width="1.5"/>
</svg>
