<svg width="44" height="44" viewBox="0 0 44 44" fill="none" xmlns="http://www.w3.org/2000/svg">
<path d="M36.6208 0H6.4625C2.89336 0 0 2.89336 0 6.4625V36.6208C0 40.19 2.89336 43.0833 6.4625 43.0833H36.6208C40.19 43.0833 43.0833 40.19 43.0833 36.6208V6.4625C43.0833 2.89336 40.19 0 36.6208 0Z" fill="#37AEE2"/>
<path d="M16.6849 33.8893C15.7531 33.8893 15.8378 33.5537 15.5837 32.7147L12.873 23.9046L33.6266 11.8223" fill="#C8DAEA"/>
<path d="M16.8125 33.8899C17.3853 33.8899 17.7126 33.5561 18.1217 33.2223L21.8039 29.6341L17.2216 26.7969" fill="#A9C9DD"/>
<path d="M17.1373 26.7876L28.4916 35.0976C29.6691 35.853 30.6784 35.4333 31.0148 33.9224L35.6407 12.2662C36.0612 10.4195 34.8837 9.58015 33.6221 10.1677L6.62396 20.5761C4.85773 21.2476 4.85773 22.3389 6.28754 22.7585L13.2684 24.941L29.2486 14.7844C30.0055 14.3647 30.6784 14.5325 30.1738 15.1201" fill="#F6FBFE"/>
</svg>
