<svg width="45" height="45" viewBox="0 0 45 45" fill="none" xmlns="http://www.w3.org/2000/svg">
<path d="M38.25 0H6.75C3.02208 0 0 3.02208 0 6.75V38.25C0 41.9779 3.02208 45 6.75 45H38.25C41.9779 45 45 41.9779 45 38.25V6.75C45 3.02208 41.9779 0 38.25 0Z" fill="#37AEE2"/>
<path d="M17.4268 35.3964C16.4535 35.3964 16.542 35.0459 16.2766 34.1695L13.4453 24.9675L35.1221 12.3477" fill="#C8DAEA"/>
<path d="M17.561 35.3968C18.1593 35.3968 18.5012 35.0482 18.9285 34.6995L22.7744 30.9517L17.9884 27.9883" fill="#A9C9DD"/>
<path d="M17.8998 27.9786L29.7593 36.6582C30.9892 37.4473 32.0433 37.0089 32.3947 35.4308L37.2264 12.8111C37.6656 10.8823 36.4358 10.0056 35.118 10.6193L6.9188 21.4908C5.07399 22.1922 5.07399 23.3319 6.56741 23.7703L13.8588 26.0498L30.5499 15.4413C31.3406 15.003 32.0433 15.1783 31.5163 15.792" fill="#F6FBFE"/>
</svg>
