<svg width="35" height="36" viewBox="0 0 35 36" fill="none" xmlns="http://www.w3.org/2000/svg">
<mask id="mask0_530_1281" style="mask-type:luminance" maskUnits="userSpaceOnUse" x="-1" y="-1" width="37" height="37">
<path d="M34.9999 35.1406V0.140625H-6.10352e-05V35.1406H34.9999Z" fill="white" stroke="white"/>
</mask>
<g mask="url(#mask0_530_1281)">
<path d="M2.3667 6.1917H6.82454C7.43908 6.1917 7.93724 5.69347 7.93724 5.07894V0.621094" stroke="#172337" stroke-miterlimit="10" stroke-linecap="round" stroke-linejoin="round"/>
<path d="M26.6036 8.67822V1.6127C26.6036 0.998236 26.1053 0.5 25.4909 0.5H8.48657C8.13486 0.5 7.79748 0.63982 7.54874 0.88849L2.63446 5.80276C2.38574 6.05153 2.246 6.38889 2.24597 6.74067V31.4171C2.24597 32.0317 2.74414 32.5299 3.35867 32.5299H5.91642" stroke="#172337" stroke-miterlimit="10" stroke-linecap="round" stroke-linejoin="round"/>
<path d="M8.28174 32.5293H11.581" stroke="#172337" stroke-miterlimit="10" stroke-linecap="round" stroke-linejoin="round"/>
<path d="M5.53125 26.0849V10.9093C5.53125 10.0436 6.23304 9.3418 7.09873 9.3418C7.96435 9.3418 8.66614 10.0436 8.66614 10.9093V31.0148C8.66612 31.4423 8.57654 31.8651 8.40319 32.2558L7.35609 34.6158C7.25704 34.8389 6.94035 34.8389 6.84137 34.6158L5.79427 32.2558C5.62085 31.8651 5.53126 31.4424 5.53125 31.0148V28.5043" stroke="#172337" stroke-miterlimit="10" stroke-linecap="round" stroke-linejoin="round"/>
<path d="M5.53125 31.0137H8.66614" stroke="#172337" stroke-miterlimit="10" stroke-linecap="round" stroke-linejoin="round"/>
<path d="M8.66614 12.8184H5.53125" stroke="#172337" stroke-miterlimit="10" stroke-linecap="round" stroke-linejoin="round"/>
<path d="M5.53125 15.0117H8.66614" stroke="#172337" stroke-miterlimit="10" stroke-linecap="round" stroke-linejoin="round"/>
<path d="M14.5971 21.8673C14.5109 21.8672 14.4282 21.8329 14.3672 21.7719C14.3063 21.7109 14.2719 21.6282 14.2719 21.5419V19.0196C14.2719 18.9334 14.3063 18.8507 14.3672 18.7897C14.4282 18.7287 14.5109 18.6944 14.5971 18.6943H17.6573C17.7435 18.6944 17.8262 18.7287 17.8872 18.7897C17.9482 18.8507 17.9825 18.9334 17.9826 19.0196V21.5419C17.9825 21.6282 17.9482 21.7109 17.8872 21.7719C17.8262 21.8329 17.7435 21.8672 17.6573 21.8673H14.5971Z" stroke="#172337" stroke-miterlimit="10" stroke-linecap="round" stroke-linejoin="round"/>
<path d="M20.637 21.8673C20.5507 21.8672 20.4681 21.8329 20.4071 21.7719C20.3461 21.7109 20.3118 21.6282 20.3118 21.5419V19.0196C20.3118 18.9334 20.3461 18.8506 20.4071 18.7897C20.4681 18.7287 20.5507 18.6944 20.637 18.6943H23.6972C23.7835 18.6944 23.8661 18.7287 23.927 18.7897C23.9881 18.8507 24.0223 18.9334 24.0224 19.0196V21.5419C24.0223 21.6282 23.9881 21.7109 23.927 21.7719C23.8661 21.8329 23.7835 21.8672 23.6972 21.8673H20.637Z" stroke="#172337" stroke-miterlimit="10" stroke-linecap="round" stroke-linejoin="round"/>
<path d="M26.946 21.8673C26.8599 21.8672 26.7771 21.8329 26.7162 21.7719C26.6552 21.7109 26.6209 21.6282 26.6208 21.5419V19.0196C26.6209 18.9334 26.6552 18.8506 26.7162 18.7897C26.7771 18.7287 26.8599 18.6944 26.946 18.6943H30.0062C30.0925 18.6944 30.1752 18.7287 30.2362 18.7897C30.2971 18.8506 30.3314 18.9334 30.3316 19.0196V21.5419C30.3314 21.6282 30.2971 21.7109 30.2362 21.7719C30.1752 21.8329 30.0925 21.8672 30.0062 21.8673H26.946Z" stroke="#172337" stroke-miterlimit="10" stroke-linecap="round" stroke-linejoin="round"/>
<path d="M14.5971 27.296C14.5109 27.2959 14.4283 27.2616 14.3672 27.2006C14.3063 27.1396 14.272 27.0569 14.272 26.9706V24.4483C14.272 24.362 14.3063 24.2793 14.3672 24.2184C14.4283 24.1574 14.5109 24.1232 14.5971 24.123H17.6574C17.7435 24.1232 17.8262 24.1574 17.8872 24.2184C17.9482 24.2793 17.9825 24.362 17.9826 24.4483V26.9706C17.9825 27.0569 17.9483 27.1396 17.8872 27.2006C17.8262 27.2616 17.7435 27.2959 17.6574 27.296H14.5971Z" stroke="#172337" stroke-miterlimit="10" stroke-linecap="round" stroke-linejoin="round"/>
<path d="M20.6368 27.296C20.5505 27.2959 20.4678 27.2616 20.4069 27.2006C20.3459 27.1396 20.3115 27.0569 20.3115 26.9706V24.4483C20.3116 24.362 20.3459 24.2793 20.4069 24.2183C20.4679 24.1574 20.5506 24.1232 20.6368 24.123H23.6969C23.7831 24.1232 23.8658 24.1574 23.9268 24.2184C23.9878 24.2793 24.0221 24.362 24.0222 24.4483V26.9706C24.0221 27.0569 23.9878 27.1396 23.9268 27.2006C23.8659 27.2616 23.7832 27.2959 23.6969 27.296H20.6368Z" stroke="#172337" stroke-miterlimit="10" stroke-linecap="round" stroke-linejoin="round"/>
<path d="M26.9459 27.296C26.8597 27.2959 26.7769 27.2616 26.716 27.2006C26.655 27.1396 26.6207 27.0569 26.6206 26.9706V24.4483C26.6207 24.362 26.655 24.2793 26.716 24.2183C26.777 24.1574 26.8597 24.1232 26.9459 24.123H30.006C30.0923 24.1232 30.175 24.1574 30.2359 24.2183C30.2969 24.2793 30.3313 24.362 30.3314 24.4483V26.9706C30.3313 27.0569 30.2969 27.1396 30.236 27.2006C30.175 27.2616 30.0923 27.2959 30.006 27.296H26.9459Z" stroke="#172337" stroke-miterlimit="10" stroke-linecap="round" stroke-linejoin="round"/>
<path d="M14.5971 32.7237C14.5109 32.7236 14.4283 32.6894 14.3672 32.6284C14.3063 32.5674 14.272 32.4848 14.272 32.3985V29.876C14.272 29.7899 14.3063 29.7072 14.3672 29.6462C14.4283 29.5851 14.5109 29.5509 14.5971 29.5508H17.6574C17.7435 29.5509 17.8262 29.5851 17.8872 29.6462C17.9483 29.7072 17.9825 29.7899 17.9826 29.876V32.3985C17.9825 32.4848 17.9482 32.5674 17.8872 32.6284C17.8262 32.6894 17.7435 32.7236 17.6574 32.7237H14.5971Z" stroke="#172337" stroke-miterlimit="10" stroke-linecap="round" stroke-linejoin="round"/>
<path d="M30.0057 29.5508H20.6368C20.5941 29.5508 20.5518 29.5591 20.5123 29.5755C20.4729 29.5918 20.4369 29.6158 20.4068 29.6461C20.3766 29.6762 20.3526 29.7121 20.3363 29.7516C20.3199 29.791 20.3115 29.8333 20.3115 29.876V32.3984C20.3115 32.4411 20.3199 32.4835 20.3363 32.5229C20.3526 32.5624 20.3766 32.5982 20.4068 32.6285C20.4369 32.6587 20.4729 32.6826 20.5123 32.699C20.5518 32.7153 20.5941 32.7237 20.6368 32.7237H30.0057C30.092 32.7236 30.1747 32.6894 30.2357 32.6284C30.2966 32.5674 30.331 32.4847 30.3311 32.3984V29.876C30.331 29.7899 30.2966 29.7071 30.2357 29.6462C30.1747 29.5851 30.092 29.5509 30.0057 29.5508Z" stroke="#172337" stroke-miterlimit="10" stroke-linecap="round" stroke-linejoin="round"/>
<path d="M31.3574 8.67773H12.9766C12.2056 8.67773 11.5806 9.30275 11.5806 10.0737V33.3862C11.5806 34.1571 12.2056 34.782 12.9766 34.782H31.3574C32.1283 34.782 32.7534 34.1571 32.7534 33.3862V10.0736C32.7534 9.30275 32.1283 8.67773 31.3574 8.67773Z" stroke="#172337" stroke-miterlimit="10" stroke-linecap="round" stroke-linejoin="round"/>
<path d="M19.1932 11.0938H29.7497C29.827 11.0938 29.9036 11.109 29.9749 11.1385C30.0463 11.1681 30.1112 11.2114 30.1659 11.2661C30.2205 11.3208 30.2638 11.3857 30.2934 11.4571C30.323 11.5285 30.3383 11.605 30.3383 11.6823V15.7349C30.3383 15.8122 30.323 15.8888 30.2934 15.9602C30.2638 16.0315 30.2205 16.0965 30.1659 16.1511C30.1112 16.2058 30.0463 16.2491 29.9749 16.2786C29.9036 16.3083 29.827 16.3235 29.7497 16.3235H14.5843C14.507 16.3235 14.4304 16.3083 14.359 16.2788C14.2877 16.2491 14.2227 16.2058 14.1681 16.1511C14.1134 16.0965 14.07 16.0315 14.0404 15.9602C14.0108 15.8888 13.9956 15.8122 13.9956 15.7349V11.6823C13.9956 11.605 14.0108 11.5285 14.0404 11.4571C14.07 11.3856 14.1134 11.3208 14.1681 11.2661C14.2227 11.2114 14.2877 11.1681 14.359 11.1385C14.4304 11.109 14.507 11.0938 14.5843 11.0938H16.7736" stroke="#172337" stroke-miterlimit="10" stroke-linecap="round" stroke-linejoin="round"/>
</g>
</svg>
