<svg width="214" height="268" viewBox="0 0 214 268" fill="none" xmlns="http://www.w3.org/2000/svg">
<path d="M213.987 60.6853V234.502C213.987 253.002 199.017 268 180.551 268H33.4354C14.9695 268 0 253.002 0 234.502V33.5117C0 15.0111 14.9695 0.0134312 33.4354 0.0134312H153.429C155.204 -0.0993841 157.052 0.493657 158.531 1.97572L212.028 55.573C213.507 57.0551 214.099 58.9066 213.987 60.6853ZM147.116 13.4128H33.4354C22.3559 13.4128 13.3742 22.4114 13.3742 33.5117V234.502C13.3742 245.602 22.3559 254.601 33.4354 254.601H180.551C191.631 254.601 200.612 245.602 200.612 234.502V67.0101H153.803C150.11 67.0101 147.116 64.0105 147.116 60.3104V13.4128ZM160.49 22.8875V53.6107H191.155L160.49 22.8875ZM60.1837 107.195C56.4906 107.195 53.4966 104.195 53.4966 100.495C53.4966 96.7948 56.4906 93.7953 60.1837 93.7953H153.803C157.496 93.7953 160.49 96.7948 160.49 100.495C160.49 104.195 157.496 107.195 153.803 107.195H60.1837ZM60.1837 147.393C56.4906 147.393 53.4966 144.393 53.4966 140.693C53.4966 136.993 56.4906 133.993 60.1837 133.993H153.803C157.496 133.993 160.49 136.993 160.49 140.693C160.49 144.393 157.496 147.393 153.803 147.393H60.1837ZM60.1837 187.591C56.4906 187.591 53.4966 184.591 53.4966 180.891C53.4966 177.191 56.4906 174.191 60.1837 174.191H127.055C130.748 174.191 133.742 177.191 133.742 180.891C133.742 184.591 130.748 187.591 127.055 187.591H60.1837Z" fill="#E3E5EB"/>
</svg>
